<svg class="icon" xmlns="http://www.w3.org/2000/svg" width="160.64" height="28.037" viewBox="0 0 160.64 28.037"><defs><style>.a{fill-rule:evenodd;}</style></defs><path class="a" d="M629.315,633.816a5.8,5.8,0,0,0,1.537-.337c.712-.283,1.329-.8.933-1.734a.856.856,0,0,0-.4-.454.922.922,0,0,0-.579-.071,1.775,1.775,0,0,0-.513.183,2.982,2.982,0,0,0-.529.354,4.484,4.484,0,0,0-.479.458,4.553,4.553,0,0,0-.421.55,3.341,3.341,0,0,0-.558,1.387,1.539,1.539,0,0,0,.367,1.267l.025.025.029.021a2.191,2.191,0,0,0,1.4.342,6.674,6.674,0,0,0,1.825-.388c.279-.1.562-.2.854-.321s.583-.246.875-.379a1.339,1.339,0,0,0-.033.321.362.362,0,0,0,.067.217.343.343,0,0,0,.333.133.99.99,0,0,0,.433-.233,7.524,7.524,0,0,0,.554-.529c.212-.221.45-.475.7-.737.046-.05.458-.437.858-.812s.788-.742.788-.742a9.379,9.379,0,0,0-.4,1.929,1.4,1.4,0,0,0,.3,1.171.959.959,0,0,0,.988.079,6.56,6.56,0,0,0,1.763-1.088,43.162,43.162,0,0,0-1.771,5.784,6.992,6.992,0,0,0-.054,4.017.321.321,0,0,0,.2.167.351.351,0,0,0,.267-.029.374.374,0,0,0,.179-.2.341.341,0,0,0-.013-.263c-.642-1.317.125-4.471,1.3-7.821s2.746-6.912,3.729-9.033c2.991-.116,5.921-.087,8.108-.025s3.629.146,3.642.146a.369.369,0,0,0,.254-.088.383.383,0,0,0,.129-.237.329.329,0,0,0-.075-.25.309.309,0,0,0-.229-.117c-.013,0-1.412-.087-3.546-.146s-5-.092-7.954.012c.179-.383.325-.687.429-.9l.158-.333a.334.334,0,0,0,.021-.267.321.321,0,0,0-.175-.187l-.067-.021-.067,0a.317.317,0,0,0-.192.054.4.4,0,0,0-.138.15c0,.008-.075.154-.2.417s-.308.646-.529,1.121c-1.588.067-3.183.175-4.683.346a32.994,32.994,0,0,0-4.146.692,12.994,12.994,0,0,0-2.437.792c-.479.237-.654.446-.621.625.029.154.191.267.446.333a3.711,3.711,0,0,0,.979.083c.317-.013.671-.038,1.033-.075s.729-.088,1.062-.146a4.58,4.58,0,0,0,1.208-.358c.3-.154.475-.342.446-.563a.322.322,0,0,0-.125-.225.358.358,0,0,0-.254-.059.386.386,0,0,0-.233.146.334.334,0,0,0-.071.258c0,.025-.116.029-.308.042a6.023,6.023,0,0,0-.746.079c-.321.054-.666.1-1.008.138s-.679.062-.979.071a2.385,2.385,0,0,0-.55.079c-.133.033-.212.058-.221.029a5.3,5.3,0,0,1,.563-.129c.4-.083,1.025-.221,1.946-.446a31.518,31.518,0,0,1,3.925-.667c1.425-.162,2.938-.271,4.45-.342-.354.771-.775,1.708-1.216,2.737s-.913,2.159-1.363,3.321l-.013,0-.008.009a15,15,0,0,1-1.921,1.537c-.446.275-.708.333-.829.225s-.146-.413-.088-.833a11.7,11.7,0,0,1,.379-1.579,1.7,1.7,0,0,0,.087-.8.414.414,0,0,0-.325-.329c-.225-.054-.558.138-.942.45a14.535,14.535,0,0,0-1.242,1.217l-.067.012-.063.025-.279.141-.279.146c.171-.3.342-.592.467-.808s.217-.354.217-.358a.349.349,0,0,0,.042-.263.325.325,0,0,0-.154-.208.338.338,0,0,0-.263-.025.378.378,0,0,0-.212.167s-.158.258-.366.633-.467.867-.671,1.337c-.379.179-.758.359-1.129.517s-.742.3-1.1.425a6.63,6.63,0,0,1-1.5.346,1.739,1.739,0,0,1-1.092-.2,1.067,1.067,0,0,1-.2-.638c0-.233.1-.437.337-.462Zm52.7-3.621a2.909,2.909,0,0,0-1,.75,2.038,2.038,0,0,0-.467,1.033,2.074,2.074,0,0,0,0,.8,1.184,1.184,0,0,0,.4.629,5.891,5.891,0,0,1,.7.671,1.057,1.057,0,0,1,.342.858,1.369,1.369,0,0,1-.733.892,3.416,3.416,0,0,1-1.15.3,1.743,1.743,0,0,0-.379.071.383.383,0,0,0-.288.225c-.042.15-.029.246.038.308a.551.551,0,0,0,.325.108,2.168,2.168,0,0,0,.6,0,3.653,3.653,0,0,0,.6-.167,4.415,4.415,0,0,0,1.179-.612,1.75,1.75,0,0,0,.7-1.008,1.343,1.343,0,0,0-.2-1.042,3.65,3.65,0,0,0-.738-.763,1.58,1.58,0,0,1-.5-.629,1.3,1.3,0,0,1-.025-.841,1.168,1.168,0,0,1,.754-.75c.354-.154.771-.25,1.121-.4a1.973,1.973,0,0,0,.175-.092.475.475,0,0,0,.158-.125c.221-.362,0-.5-.371-.5a3.316,3.316,0,0,0-1.229.283Zm30.45-5.8.067.009.067.016a.317.317,0,0,1,.175.192.375.375,0,0,1-.021.267l-.321.679c-.179.388-.408.867-.587,1.25,1.183-.041,2.333-.062,3.421-.071s2.1,0,3.025.017c.212-.529.417-1.05.571-1.437l.254-.642a.379.379,0,0,1,.138-.154.317.317,0,0,1,.192-.054l.067,0,.067.021a.322.322,0,0,1,.175.187.372.372,0,0,1-.021.267l-.216.558c-.134.342-.308.8-.5,1.267.412.008.8.017,1.158.029s.687.025.983.033c.683-1.475,1.283-2.671,1.8-3.617a19.258,19.258,0,0,1,1.333-2.146,2.891,2.891,0,0,1,1.125-1.029.526.526,0,0,1,.7.292,1.79,1.79,0,0,1,.121.925,7.944,7.944,0,0,1-.271,1.512,19.27,19.27,0,0,1-1.025,2.825,24.133,24.133,0,0,1-1.738,3.225c1.371.029,2.429.087,3.15.142s1.1.1,1.1.1a.315.315,0,0,1,.229.117.346.346,0,0,1,.075.25.383.383,0,0,1-.129.237.377.377,0,0,1-.254.088c-.009,0-.429-.05-1.217-.1s-1.937-.117-3.416-.138a19.692,19.692,0,0,1-1.679,2.1,15.08,15.08,0,0,1-1.979,1.817c-.1.254-.2.516-.308.779s-.208.529-.317.8a15.12,15.12,0,0,1,2.217-2.267c.708-.533,1.308-.7,1.537-.029a2.35,2.35,0,0,1,.108,1.029,3.736,3.736,0,0,1-.213.863,18.6,18.6,0,0,1,2.771-.963c1.033-.3,2.012-.538,2.45-.646l.083-.142.087-.138a4.566,4.566,0,0,1,.421-.546,4.2,4.2,0,0,1,.479-.463,3.092,3.092,0,0,1,.529-.354,1.776,1.776,0,0,1,.513-.183.958.958,0,0,1,.579.071.854.854,0,0,1,.4.454c.4.933-.221,1.45-.933,1.733a5.607,5.607,0,0,1-1.537.337c-.242.025-.338.229-.342.462a1.125,1.125,0,0,0,.2.637,1.756,1.756,0,0,0,1.1.2,6.652,6.652,0,0,0,1.5-.346,18.025,18.025,0,0,0,1.858-.767c.633-.3,1.267-.625,1.867-.937l.025-.013.021-.008a.654.654,0,0,1,.4-.208.333.333,0,0,1,.258.1.179.179,0,0,1,.033.158.384.384,0,0,1-.071.163s-.3.441-.529.887-.379.9-.087.937a.614.614,0,0,0,.392-.158,3.421,3.421,0,0,0,.509-.475c.121-.138.245-.288.362-.45s.233-.333.342-.513a1.859,1.859,0,0,1-.258-.15,1.737,1.737,0,0,1-.208-.167,1.506,1.506,0,0,1-.454-.754,1.672,1.672,0,0,1,.017-.813,2.121,2.121,0,0,1,.325-.708,1.912,1.912,0,0,1,.513-.508,1.2,1.2,0,0,1,.6-.2.807.807,0,0,1,.554.212,1.053,1.053,0,0,1,.337.6,2.136,2.136,0,0,1-.008.812,3.871,3.871,0,0,1-.163.629,6.368,6.368,0,0,1-.271.663,6.012,6.012,0,0,0,1.416.1c.579-.013,1.258-.225,2.088-.225h0q.194-.206.4-.412l.425-.425c.112-.112.229-.225.341-.333s.221-.221.325-.329l-.129,0-.125-.009c-.146-.013-.283-.029-.4-.05a1.246,1.246,0,0,1-.292-.1.428.428,0,0,1-.121-.783,1.7,1.7,0,0,1,.441-.292,6.931,6.931,0,0,1,.875-.354,2.6,2.6,0,0,1,1.071-.2.45.45,0,0,1,.437.321.507.507,0,0,1-.025.308,1.663,1.663,0,0,1-.2.392c.225-.025.438-.063.613-.1a1.652,1.652,0,0,0,.4-.138.472.472,0,0,1,.325-.075.318.318,0,0,1,.217.188c.121.229-.087.591-.383.962s-.683.762-.917,1.046c-.5.6-1.075,1.279-1.562,1.892a11.334,11.334,0,0,0-1.042,1.446c.379-.133.792-.3,1.208-.5s.838-.417,1.242-.638c.558-.312,1.075-.633,1.492-.912a6.661,6.661,0,0,0,.879-.667l.025-.021.021-.017c.1-.141.2-.283.308-.429s.225-.288.342-.433a.37.37,0,0,1,.237-.133.322.322,0,0,1,.366.3.363.363,0,0,1-.079.254,11.546,11.546,0,0,0-.912,1.267,4.9,4.9,0,0,0-.5,1.033c-.021.079-.037.146-.046.2a.379.379,0,0,0,0,.138h0a.548.548,0,0,0,.2-.021,2.6,2.6,0,0,0,.321-.117,9.8,9.8,0,0,0,2.654-2.167c.813-.867,1.429-1.642,1.429-1.646a.37.37,0,0,1,.238-.137.313.313,0,0,1,.254.058.335.335,0,0,1,.117.188.37.37,0,0,1-.025.221c-.179.458-.358.908-.533,1.346s-.358.867-.538,1.283c.379-.2.767-.4,1.167-.608s.812-.4,1.233-.6a.341.341,0,0,1,.263-.017.305.305,0,0,1,.192.175.357.357,0,0,1,0,.263.413.413,0,0,1-.187.2c-.558.263-1.1.529-1.613.8s-1.017.533-1.5.8a42.466,42.466,0,0,1-4.583,7.967,16.049,16.049,0,0,1-3.954,3.913,4.5,4.5,0,0,1-1.875.737,1.541,1.541,0,0,1-1.258-.35,1.588,1.588,0,0,1-.437-1.229,4.664,4.664,0,0,1,.554-1.942,15.781,15.781,0,0,1,3.533-4.346,40.04,40.04,0,0,1,7.5-5.233c.108-.246.221-.5.333-.758s.221-.517.333-.783a19.072,19.072,0,0,1-1.5,1.454,6.49,6.49,0,0,1-1.554,1.05,2.789,2.789,0,0,1-.521.171,1.081,1.081,0,0,1-.4.013.636.636,0,0,1-.346-.158.654.654,0,0,1-.175-.317,1.008,1.008,0,0,1-.021-.321,1.707,1.707,0,0,1,.075-.379l.042-.129.054-.134c-.2.125-.4.254-.621.384s-.446.267-.679.4c-.446.246-.913.487-1.375.7a12.649,12.649,0,0,1-1.346.538.843.843,0,0,1-.525.033.412.412,0,0,1-.25-.309c-.083-.308.3-.975.871-1.758s1.313-1.675,1.95-2.433c.163-.192.325-.363.475-.509s.292-.262.408-.362c-.179.033-.375.067-.579.1s-.416.046-.629.062c-.171.183-.354.379-.546.575s-.4.4-.6.592c-.4.4-.8.8-1.1,1.108a2.344,2.344,0,0,0-.479.571.35.35,0,0,1-.054.258.375.375,0,0,1-.221.159.34.34,0,0,1-.259-.042.291.291,0,0,1-.142-.208.539.539,0,0,1,.05-.308,1.956,1.956,0,0,1,.225-.384,12.024,12.024,0,0,1-1.833.113,5.76,5.76,0,0,1-1.325-.167,6.927,6.927,0,0,1-.408.625,6.807,6.807,0,0,1-.441.55,3.51,3.51,0,0,1-.779.671,1.211,1.211,0,0,1-.738.2.685.685,0,0,1-.692-.591,2.242,2.242,0,0,1,.2-1.067c-.492.25-1,.5-1.5.721s-1,.429-1.479.587a6.511,6.511,0,0,1-1.829.388,2.18,2.18,0,0,1-1.4-.342l-.029-.021-.025-.021a1.448,1.448,0,0,1-.358-.75,1.976,1.976,0,0,1,.058-.85c-.625.154-1.6.4-2.529.687a12.345,12.345,0,0,0-2.279.854,1.537,1.537,0,0,1-.625.25.321.321,0,0,1-.329-.187.412.412,0,0,1-.033-.3,1.916,1.916,0,0,1,.129-.375,4.658,4.658,0,0,0,.254-.771,1.86,1.86,0,0,0-.042-.963c-.154-.442-1.142.621-2.092,1.8s-1.867,2.454-1.871,2.463a.365.365,0,0,1-.487.1.324.324,0,0,1-.125-.175.4.4,0,0,1,.013-.221h0q.825-2.181,1.571-4.034c.5-1.237.967-2.367,1.408-3.4-.337.008-.687.013-1.046.025s-.725.021-1.1.033a37.148,37.148,0,0,0-2.159,6.313c-.517,2-.9,3.8-1.316,5.138a1.308,1.308,0,0,1-.121.3.229.229,0,0,1-.25.121.654.654,0,0,1-.292-.187.343.343,0,0,1-.117-.292c.446-1.7.808-3.417,1.313-5.275a38.954,38.954,0,0,1,2.183-6.084c-.729.033-.988.033-1.234.046s-.479.029-1.171.1c-.388.037-.613-.108-.638-.279s.142-.358.542-.4c.729-.079,1.054-.1,1.387-.117s.675-.016,1.441-.05c.071-.154.163-.367.267-.616s.225-.534.346-.83c-.937-.016-1.967-.025-3.063-.013s-2.25.029-3.433.075c-.354.767-.775,1.7-1.221,2.725s-.917,2.15-1.367,3.3c.221-.109.441-.221.658-.333s.429-.225.642-.333a.361.361,0,0,1,.263-.025.3.3,0,0,1,.191.171.328.328,0,0,1,.013.258.355.355,0,0,1-.175.2c-.312.167-.633.329-.959.5s-.654.325-.987.479a41.3,41.3,0,0,0-1.7,5.446,6.5,6.5,0,0,0-.062,3.771.339.339,0,0,1,.012.263.366.366,0,0,1-.179.208.353.353,0,0,1-.267.029.321.321,0,0,1-.2-.167,6.635,6.635,0,0,1-.033-3.792,37.858,37.858,0,0,1,1.588-5.387c-.179.079-.354.15-.529.217s-.35.129-.521.188a6.842,6.842,0,0,1-1.825.388,2.224,2.224,0,0,1-1.4-.346l-.029-.021-.025-.021a1.417,1.417,0,0,1-.363-.783c-.246.179-.554.388-.9.608s-.733.45-1.133.675c-.446.25-.912.492-1.375.7a12.558,12.558,0,0,1-1.346.538.84.84,0,0,1-.525.033.41.41,0,0,1-.25-.308c-.083-.308.3-.975.871-1.758s1.313-1.675,1.95-2.433c.162-.192.325-.362.475-.508s.292-.263.408-.362c-.179.033-.375.067-.579.1s-.417.046-.629.062c-.167.183-.354.379-.546.575s-.4.4-.6.592l-.142.146-.142.141a.462.462,0,0,1-.067.109.3.3,0,0,1-.108.083l-.021.013-.021.008c-.3.3-.571.579-.767.788s-.317.354-.308.392a.351.351,0,0,1-.054.258.376.376,0,0,1-.221.158.364.364,0,0,1-.258-.037.323.323,0,0,1-.142-.213.657.657,0,0,1,.108-.429,3.983,3.983,0,0,1,.4-.567c-.687.158-1.55.325-2.392.462s-1.65.238-2.233.267a5.363,5.363,0,0,1-.692-.008,2.321,2.321,0,0,1-.554-.1,1.062,1.062,0,0,1-.45-.275.7.7,0,0,1-.167-.454c-.529.271-1.075.542-1.621.788a17.014,17.014,0,0,1-1.6.646,6.836,6.836,0,0,1-1.825.388,2.244,2.244,0,0,1-1.4-.342l-.029-.021-.025-.025a1.543,1.543,0,0,1-.367-1.267,3.356,3.356,0,0,1,.558-1.392,4.91,4.91,0,0,1,.421-.546,4.086,4.086,0,0,1,.479-.458,3.025,3.025,0,0,1,.529-.359,1.646,1.646,0,0,1,.513-.179.955.955,0,0,1,.579.067.864.864,0,0,1,.4.458c.4.929-.217,1.45-.933,1.733a5.967,5.967,0,0,1-1.533.337c-.246.025-.341.229-.346.463a1.072,1.072,0,0,0,.2.633,1.691,1.691,0,0,0,1.092.2,6.229,6.229,0,0,0,1.5-.346,18.015,18.015,0,0,0,1.858-.763c.633-.3,1.267-.625,1.867-.942l.054-.021.054-.013.125-.15.146-.162a7.2,7.2,0,0,1,2.183-1.6,4.805,4.805,0,0,1,1.867-.479,2.328,2.328,0,0,1,.467.038,1.207,1.207,0,0,1,.358.121.681.681,0,0,1,.3.288.574.574,0,0,1,.046.4.938.938,0,0,1-.237.416,2.212,2.212,0,0,1-.559.425.346.346,0,0,1-.262.038.314.314,0,0,1-.2-.154.36.36,0,0,1-.021-.263.38.38,0,0,1,.171-.208,2.537,2.537,0,0,0,.316-.212.341.341,0,0,0,.117-.15l0,.009-.021.021a.887.887,0,0,0-.2-.063,2.03,2.03,0,0,0-.292-.017,4.133,4.133,0,0,0-1.617.425,6.32,6.32,0,0,0-1.917,1.417,3.207,3.207,0,0,0-.358.437.772.772,0,0,0-.129.3.1.1,0,0,0,.041.088.444.444,0,0,0,.134.071,1.7,1.7,0,0,0,.429.071,5.2,5.2,0,0,0,.571,0,28.846,28.846,0,0,0,3.012-.4,18.215,18.215,0,0,0,2.471-.567l.2-.2.2-.2.342-.333c.112-.112.221-.221.325-.329l-.129,0-.125-.008a3.394,3.394,0,0,1-.4-.054,1.1,1.1,0,0,1-.292-.092c-.183-.091-.3-.2-.321-.333a.542.542,0,0,1,.2-.45,1.7,1.7,0,0,1,.442-.292,6.806,6.806,0,0,1,.875-.358,2.729,2.729,0,0,1,1.071-.2.452.452,0,0,1,.438.317.518.518,0,0,1-.025.312,1.657,1.657,0,0,1-.2.392,6.145,6.145,0,0,0,.612-.1,1.661,1.661,0,0,0,.4-.138.472.472,0,0,1,.325-.075.327.327,0,0,1,.217.187c.121.23-.087.592-.383.963s-.683.763-.916,1.046c-.5.6-1.071,1.279-1.562,1.891a11.678,11.678,0,0,0-1.042,1.442,12.007,12.007,0,0,0,1.208-.5c.416-.2.837-.417,1.242-.638.558-.312,1.075-.629,1.492-.913a7.129,7.129,0,0,0,.883-.666l.029-.029.037-.025a3.531,3.531,0,0,1,.192-.471,4.514,4.514,0,0,1,.263-.458,5.427,5.427,0,0,1,.421-.546,4.074,4.074,0,0,1,.479-.458,3.03,3.03,0,0,1,.529-.358,1.682,1.682,0,0,1,.513-.179.925.925,0,0,1,.579.067.871.871,0,0,1,.4.454c.4.933-.217,1.454-.933,1.738a5.685,5.685,0,0,1-1.533.333c-.246.029-.341.233-.341.467a1.049,1.049,0,0,0,.2.633,1.717,1.717,0,0,0,1.092.2,6.232,6.232,0,0,0,1.5-.346c.254-.083.508-.179.771-.288s.525-.221.792-.337c.454-1.2.937-2.387,1.4-3.479s.912-2.092,1.3-2.925c-1.513.067-2.983.121-4.379.2s-2.708.183-3.908.367a16.981,16.981,0,0,0-1.883.366,1.612,1.612,0,0,0-.479.171,1.8,1.8,0,0,0,.254,0c.125-.012.25-.029.245-.058a.367.367,0,0,1,.125-.283.546.546,0,0,1,.283-.163.334.334,0,0,1,.254.058.318.318,0,0,1,.129.225c.054.454.042.663-.058.758s-.308.079-.633.088a3.711,3.711,0,0,1-.979-.083c-.254-.067-.417-.175-.45-.333-.029-.175.137-.438.617-.7a7.286,7.286,0,0,1,2.446-.708c1.3-.2,2.688-.312,4.15-.4s3-.138,4.591-.2c.221-.475.479-1.033.687-1.471s.362-.758.362-.763a.383.383,0,0,1,.138-.154.392.392,0,0,1,.192-.054Zm9.429,2.467.746.038.271.017a.329.329,0,0,1,.229.112.335.335,0,0,1,.071.254.37.37,0,0,1-.125.238.36.36,0,0,1-.258.083l-.329-.017c-.212-.013-.525-.025-.917-.042l-.279.613c-.092.212-.187.425-.283.646h.717c.233,0,.458,0,.679,0a23.521,23.521,0,0,0,1.825-3.288,19.406,19.406,0,0,0,1.062-2.892,8.7,8.7,0,0,0,.254-1.25,1.327,1.327,0,0,0-.046-.683c-.008-.021-.071.025-.179.15s-.271.329-.492.621a18.2,18.2,0,0,0-1.254,2.013c-.487.887-1.054,2.008-1.692,3.383Zm-1.042.654c-.3-.012-.625-.021-.979-.033l-1.13-.025c-.121.3-.237.583-.341.829s-.187.446-.25.575c.375-.013.742-.025,1.1-.033s.7-.013,1.029-.017c.1-.229.2-.45.292-.663s.187-.429.283-.633Zm-16.729,5.467.021-.029.025-.033a3.81,3.81,0,0,1,.35-.458,3.716,3.716,0,0,1,.4-.379,2.256,2.256,0,0,1,.367-.254,1.13,1.13,0,0,1,.325-.121.219.219,0,0,1,.158.017.227.227,0,0,1,.113.121c.175.421-.154.691-.583.867a4.819,4.819,0,0,1-1.171.271Zm-4.384-1.867c-.154.008-.3.013-.442.008s-.275-.012-.4-.012h-.017c.079-.033.167-.071.271-.112s.217-.083.346-.125a2.765,2.765,0,0,0,.5-.229c.1-.058.142-.092.15-.071s-.029.092-.1.183-.183.216-.313.359Zm-14.887,1.771.021-.029.025-.033a3.84,3.84,0,0,1,.35-.458,3.367,3.367,0,0,1,.4-.379,2.222,2.222,0,0,1,.367-.254,1.129,1.129,0,0,1,.325-.121.28.28,0,0,1,.158.017.224.224,0,0,1,.109.121c.179.421-.15.692-.579.867a4.8,4.8,0,0,1-1.171.271Zm60.679,2.438Zm-5.208,11.317a4.189,4.189,0,0,1-1.425.621,1,1,0,0,1-.871-.167,1.057,1.057,0,0,1-.242-.879,4.371,4.371,0,0,1,.483-1.5,14.731,14.731,0,0,1,3.2-3.979,37.289,37.289,0,0,1,6.729-4.829,39.077,39.077,0,0,1-4.246,7.175,14.9,14.9,0,0,1-3.629,3.558Zm2.117-15.9c-.15,0-.3.009-.437,0s-.279-.013-.4-.013h-.016c.079-.033.167-.071.271-.112s.217-.083.346-.125a2.716,2.716,0,0,0,.5-.229c.1-.058.142-.1.15-.071s-.029.091-.1.183-.183.217-.317.362Zm-6.312,2.092a1.839,1.839,0,0,1-.175-.108c-.05-.038-.1-.075-.142-.113a.948.948,0,0,1-.266-.446,1.026,1.026,0,0,1,.009-.479,1.4,1.4,0,0,1,.2-.454,1.211,1.211,0,0,1,.321-.317.459.459,0,0,1,.179-.075.167.167,0,0,1,.141.033.485.485,0,0,1,.146.321,1.549,1.549,0,0,1-.021.492,3.477,3.477,0,0,1-.15.554,5.812,5.812,0,0,1-.246.592Zm-8.092.3.021-.029.025-.033a3.771,3.771,0,0,1,.746-.842,2.509,2.509,0,0,1,.367-.25.894.894,0,0,1,.325-.121.252.252,0,0,1,.158.013.257.257,0,0,1,.112.125c.175.417-.154.692-.583.863a4.9,4.9,0,0,1-1.171.275Zm-6.1-3.642c-.342.471-.7.929-1.091,1.367a15.047,15.047,0,0,1-1.221,1.25c.191-.467.379-.921.562-1.354s.359-.859.534-1.263h1.216Zm-126.946.837a3.173,3.173,0,0,0-1.054.75,2.437,2.437,0,0,0-.617,1.833,1.075,1.075,0,0,0,.358.625,5.751,5.751,0,0,1,.642.675.983.983,0,0,1,.275.859,1.519,1.519,0,0,1-.8.887,3.583,3.583,0,0,1-1.175.3,2.106,2.106,0,0,0-.379.071.431.431,0,0,0-.308.229c-.054.15-.046.242.017.308a.487.487,0,0,0,.316.1,2.158,2.158,0,0,0,.592,0,3.346,3.346,0,0,0,.612-.167,4.618,4.618,0,0,0,1.225-.612,1.937,1.937,0,0,0,.787-1,1.315,1.315,0,0,0-.129-1.042,2.964,2.964,0,0,0-.679-.762,1.438,1.438,0,0,1-.446-.633,1.289,1.289,0,0,1,.85-1.588c.367-.154.788-.245,1.15-.4a1.453,1.453,0,0,0,.183-.092.563.563,0,0,0,.171-.125c.245-.363.033-.5-.329-.5a3.653,3.653,0,0,0-1.258.287Zm16.079,3.392a5.717,5.717,0,0,0,1.533-.333c.713-.287,1.329-.8.929-1.737a.848.848,0,0,0-.4-.454.93.93,0,0,0-.579-.067,1.687,1.687,0,0,0-.516.179,3,3,0,0,0-.525.359,3.8,3.8,0,0,0-.479.458,4.847,4.847,0,0,0-.421.546c-.054.083-.109.167-.154.254s-.1.171-.138.258a20.234,20.234,0,0,1-2.062,1.208c-.587.3-1.092.533-1.575.8l-.1.05-.087.046a4.813,4.813,0,0,0,.521-1.533,1.688,1.688,0,0,0-.321-1.279.943.943,0,0,0-.392-.292,1.3,1.3,0,0,0-.558-.075,3.12,3.12,0,0,0-.954.254,8.676,8.676,0,0,0-1.3.7,10.964,10.964,0,0,0-1.05.766,14.587,14.587,0,0,0-1.1,1l1.263-2.887,1.267-2.887a.338.338,0,0,0,0-.263.325.325,0,0,0-.183-.179.368.368,0,0,0-.267.009.384.384,0,0,0-.192.2l-.9,2.071-.9,2.071-.021.021L601.4,633c-.8,1.112-1.4,1.7-1.617,1.713s-.033-.554.758-1.729a.389.389,0,0,0,.067-.212.332.332,0,0,0-.067-.2.336.336,0,0,0-.229-.121.36.36,0,0,0-.254.083A14.638,14.638,0,0,1,598,634.108a8.479,8.479,0,0,1-.867.492,7.6,7.6,0,0,1,.888-1.4c.384-.521.746-.971.75-.975a.394.394,0,0,0,.067-.259.321.321,0,0,0-.134-.221.341.341,0,0,0-.259-.054.371.371,0,0,0-.229.146s-.467.633-.942,1.363a6.85,6.85,0,0,0-1,1.937c-.058.479.354.437.933.163a14.17,14.17,0,0,0,1.975-1.258,1.923,1.923,0,0,0-.15.783.627.627,0,0,0,.337.546.6.6,0,0,0,.5-.017,2.416,2.416,0,0,0,.646-.437l.046-.042.05-.042-.329.758-.333.759a21.105,21.105,0,0,0-3.487,5.266,22.266,22.266,0,0,0-1.333,6.059.312.312,0,0,0,.2.341.368.368,0,0,0,.267-.008.38.38,0,0,0,.191-.2l2.379-5.566,2.375-5.563a19.8,19.8,0,0,1,1.692-1.792,11.477,11.477,0,0,1,1.6-1.25,8.238,8.238,0,0,1,1.129-.616,2.415,2.415,0,0,1,.779-.221.845.845,0,0,1,.242.021.313.313,0,0,1,.146.1,1.128,1.128,0,0,1,.171,1.025,5.78,5.78,0,0,1-.546,1.3,1.29,1.29,0,0,0-.108.263.716.716,0,0,0-.025.221.409.409,0,0,0,.192.346.666.666,0,0,0,.458.017,2.1,2.1,0,0,0,.317-.108c.116-.05.25-.117.387-.192.429-.233.871-.45,1.367-.7s1.046-.55,1.692-.946a1.77,1.77,0,0,0,.058.629,1.43,1.43,0,0,0,.317.554l.025.021.025.021a2.226,2.226,0,0,0,1.4.346,6.893,6.893,0,0,0,1.829-.388,6.1,6.1,0,0,0,1.817-1,16.881,16.881,0,0,0,1.521-1.4c.2-.2.4-.4.6-.592s.379-.392.546-.575c.212-.017.425-.037.629-.062s.4-.062.579-.1c-.116.1-.254.221-.4.367a5.612,5.612,0,0,0-.479.5c-.633.758-1.379,1.654-1.95,2.433s-.954,1.45-.871,1.758a.411.411,0,0,0,.25.308.838.838,0,0,0,.525-.033,12.539,12.539,0,0,0,1.346-.537c.463-.217.929-.454,1.375-.7.587-.329,1.138-.667,1.584-.971a7.336,7.336,0,0,0,.958-.729.367.367,0,0,0,.108-.246.329.329,0,0,0-.1-.242.337.337,0,0,0-.242-.1.361.361,0,0,0-.246.108,6.721,6.721,0,0,1-.883.667c-.417.279-.933.6-1.492.912-.4.221-.825.442-1.242.638a13.065,13.065,0,0,1-1.208.5,11.312,11.312,0,0,1,1.042-1.446c.491-.613,1.062-1.3,1.562-1.892.233-.283.621-.671.917-1.042s.5-.737.383-.966a.328.328,0,0,0-.216-.188.456.456,0,0,0-.321.075,1.759,1.759,0,0,1-.408.137,6.082,6.082,0,0,1-.612.1,1.674,1.674,0,0,0,.2-.392.509.509,0,0,0,.025-.309.45.45,0,0,0-.437-.321,2.671,2.671,0,0,0-1.071.2,6.079,6.079,0,0,0-.871.355,1.659,1.659,0,0,0-.446.292.542.542,0,0,0-.2.45c.025.134.138.242.321.333a1.087,1.087,0,0,0,.292.092,3.456,3.456,0,0,0,.4.054l.125,0,.129.008c-.1.108-.212.217-.325.329l-.342.333a18.44,18.44,0,0,1-1.371,1.313,5.22,5.22,0,0,1-1.683.912,6.43,6.43,0,0,1-1.5.346,1.731,1.731,0,0,1-1.1-.2,1.045,1.045,0,0,1-.2-.633c0-.234.1-.442.346-.467Zm6.85-2.633c-.154.009-.3.013-.442.009s-.275-.013-.4-.013h-.017c.079-.033.167-.071.271-.113s.217-.083.346-.125a2.761,2.761,0,0,0,.5-.229c.1-.058.142-.1.15-.071s-.029.092-.1.183-.183.217-.312.358Zm-6.775,2,.021-.029.021-.033a4.274,4.274,0,0,1,.354-.458,3.38,3.38,0,0,1,.4-.383,2.494,2.494,0,0,1,.363-.25.99.99,0,0,1,.329-.121.251.251,0,0,1,.158.016.222.222,0,0,1,.108.121c.179.421-.15.691-.579.867a5.015,5.015,0,0,1-1.171.271Zm-14.812,11.979c-.221-.067.008-1.142.517-2.475a15.839,15.839,0,0,1,2.192-4.029l-1.354,3.25-1.354,3.254Zm30.629-14.579a3.337,3.337,0,0,0-1.071.746,2.357,2.357,0,0,0-.563,1.033,2.18,2.18,0,0,0-.079.8,1.035,1.035,0,0,0,.346.625,5.181,5.181,0,0,1,.633.675.975.975,0,0,1,.262.854,1.574,1.574,0,0,1-.816.892,3.635,3.635,0,0,1-1.18.3,1.816,1.816,0,0,0-.383.071.445.445,0,0,0-.313.225c-.054.15-.046.246.013.308a.5.5,0,0,0,.312.109,2.181,2.181,0,0,0,.6,0,3.344,3.344,0,0,0,.612-.167,4.694,4.694,0,0,0,1.238-.613,2,2,0,0,0,.8-1,1.3,1.3,0,0,0-.112-1.042,2.992,2.992,0,0,0-.667-.762,1.408,1.408,0,0,1-.438-.634,1.3,1.3,0,0,1,.054-.841,1.327,1.327,0,0,1,.821-.746c.371-.154.792-.25,1.158-.4a1.812,1.812,0,0,0,.183-.091.562.562,0,0,0,.171-.125c.255-.362.046-.5-.321-.5a3.62,3.62,0,0,0-1.258.288Zm47.634,5.746a1.217,1.217,0,0,1-.338.083.278.278,0,0,1-.2-.067,1.184,1.184,0,0,1-.146-.863,8.883,8.883,0,0,1,.313-1.55,2.286,2.286,0,0,0,.179-.154c.054-.05.1-.108.163-.171a31.908,31.908,0,0,0,3.554-4.3,13,13,0,0,0,1.6-3.054,5.673,5.673,0,0,0,.237-.921,3.512,3.512,0,0,0,.054-.721,1.907,1.907,0,0,0-.108-.6.988.988,0,0,0-.234-.379.812.812,0,0,0-.137-.108.708.708,0,0,0-.154-.063c-.371-.1-1.025.558-1.771,1.638a30.4,30.4,0,0,0-2.313,4.163c-.329.712-.646,1.446-.925,2.158s-.525,1.4-.716,2.037c-.383.183-.729.362-1.042.529s-.6.321-.842.458c-.329.183-.6.329-.8.433a1,1,0,0,1-.413.142c-.033-.008-.029-.142.021-.458s.142-.8.283-1.517a.318.318,0,0,0-.125-.333.32.32,0,0,0-.25-.054.369.369,0,0,0-.233.142s-.046.063-.129.167-.208.242-.367.409l-.013-.075-.037-.071a1.186,1.186,0,0,0-1.038-.6,2.21,2.21,0,0,0-1.2.442,3.914,3.914,0,0,0-.933.9,2.611,2.611,0,0,0-.3.538,1.257,1.257,0,0,0-.1.5.645.645,0,0,0,.233.513.98.98,0,0,0,.709.142,3.948,3.948,0,0,0,1.633-.579,7.277,7.277,0,0,0,1.283-.992,3.263,3.263,0,0,0-.025,1.183.521.521,0,0,0,.462.429,1.314,1.314,0,0,0,.671-.146c.267-.121.588-.3.98-.517.187-.1.392-.217.617-.337s.467-.246.729-.379a5.992,5.992,0,0,0-.188,1.542,1.421,1.421,0,0,0,.317.975.877.877,0,0,0,.521.25,1.683,1.683,0,0,0,.737-.121.361.361,0,0,0,.2-.183.357.357,0,0,0,.025-.263.33.33,0,0,0-.175-.192.366.366,0,0,0-.267,0Zm1.329-6.812c.662-1.429,1.375-2.808,1.967-3.813s1.071-1.638,1.267-1.579h0l.008.008a.473.473,0,0,1,.1.2,1.632,1.632,0,0,1,.05.346,2.965,2.965,0,0,1-.05.6,5.489,5.489,0,0,1-.208.792,11.979,11.979,0,0,1-1.375,2.688,29.028,29.028,0,0,1-3.013,3.758c.175-.479.367-.979.579-1.484s.433-1.012.667-1.516Zm-6.571,4.25a5.626,5.626,0,0,1-1.046.775,3.145,3.145,0,0,1-1.258.429.806.806,0,0,1-.167,0c-.038,0-.054-.017-.054-.029a.538.538,0,0,1,.071-.258,2.1,2.1,0,0,1,.2-.329,3.737,3.737,0,0,1,.342-.388,3.486,3.486,0,0,1,.409-.337,1.534,1.534,0,0,1,.708-.287.6.6,0,0,1,.571.279.274.274,0,0,0,.1.1.3.3,0,0,0,.129.046Zm-1.258-6.183.067.008.062.017a.307.307,0,0,1,.175.192.354.354,0,0,1-.017.267l-.163.333c-.1.208-.246.517-.429.9,2.958-.1,4.275-.121,4.858-.108s.429.046.442.046a.317.317,0,0,1,.229.117.35.35,0,0,1,.075.25.373.373,0,0,1-.388.325c-.008,0,.1-.038-.537-.05s-2.013.008-5,.121a42.242,42.242,0,0,0-1.7,4.371,28.055,28.055,0,0,0-.958,3.575c-.067.388-.163.567-.267.642a.326.326,0,0,1-.3.025c-.075-.025-.146-.029-.179-.133a1.8,1.8,0,0,1,.046-.708c.067-.375.175-.841.317-1.375s.317-1.129.521-1.758a6.457,6.457,0,0,1-1.767,1.091.959.959,0,0,1-.992-.075,1.419,1.419,0,0,1-.3-1.171,9.319,9.319,0,0,1,.4-1.929l-.787.738c-.4.375-.813.762-.859.812-.246.263-.483.521-.7.742a7.172,7.172,0,0,1-.554.525.962.962,0,0,1-.433.237.347.347,0,0,1-.333-.138l-.038-.062-.021-.083a8.427,8.427,0,0,1-2.133.638,2.7,2.7,0,0,1-1.912-.279l-.025-.021-.025-.021a1.483,1.483,0,0,1-.267-.413,1.618,1.618,0,0,1-.108-.466,7.86,7.86,0,0,1-.908.8,2.1,2.1,0,0,1-.9.433.524.524,0,0,1-.492-.146.878.878,0,0,1-.179-.537,3.422,3.422,0,0,1,.034-.633c.033-.238.071-.487.117-.729.033-.2.071-.383.1-.554a3.353,3.353,0,0,0,.046-.446,5.8,5.8,0,0,0-.921.929c-.362.425-.742.908-1.029,1.266a5.024,5.024,0,0,1-.508.583c-.15.129-.283.192-.417.138a.318.318,0,0,1-.2-.187.43.43,0,0,1,.046-.317l.038-.083.075-.162c.217-.463.671-1.45,1.129-2.521a29.255,29.255,0,0,0,1.137-3.016c.117-.417-.425.337-1.012,1.229s-1.225,1.908-1.3,2.017c-.525.829-1.034,1.629-1.45,2.246a5.08,5.08,0,0,1-.912,1.142.457.457,0,0,1-.292.067.348.348,0,0,1-.212-.179l0-.013-.009-.012a1.249,1.249,0,0,1,.113-.771,12.966,12.966,0,0,1,.542-1.242c-.242.117-.521.242-.812.371s-.6.246-.9.358a11.447,11.447,0,0,1-1.1.346,3.67,3.67,0,0,1-.913.137,1.688,1.688,0,0,1-.333-.029,1.581,1.581,0,0,1-.271-.092.832.832,0,0,1-.292-.233.726.726,0,0,1-.141-.333.985.985,0,0,1,0-.35,1.515,1.515,0,0,1,.112-.392,3.519,3.519,0,0,1,.383-.683,8.945,8.945,0,0,1,.629-.788.4.4,0,0,1,.129-.091.35.35,0,0,1,.146-.029.367.367,0,0,1,.113.021.255.255,0,0,1,.1.063.318.318,0,0,1,.108.233.363.363,0,0,1-.1.25,6.843,6.843,0,0,0-.55.683,2.909,2.909,0,0,0-.321.566,1.086,1.086,0,0,0-.067.209.4.4,0,0,0-.008.154.146.146,0,0,0,.025.058.187.187,0,0,0,.054.042.5.5,0,0,0,.133.037,1.179,1.179,0,0,0,.188.017,3.245,3.245,0,0,0,.775-.125,9.941,9.941,0,0,0,.988-.317c.513-.187,1.033-.408,1.458-.608a8.3,8.3,0,0,0,.917-.483l.042-.025.046-.021c.183-.341.354-.642.475-.858s.2-.346.2-.35a.364.364,0,0,1,.212-.167.331.331,0,0,1,.258.025.31.31,0,0,1,.154.2.345.345,0,0,1-.042.263l-.179.317c-.112.2-.267.467-.438.767.075-.116.15-.237.225-.359s.154-.241.233-.362c.617-.979,1.262-1.992,1.808-2.783a5,5,0,0,1,1.234-1.438.492.492,0,0,1,.262-.025.276.276,0,0,1,.183.133.625.625,0,0,1,.192.5,3.109,3.109,0,0,1-.129.854c-.133.487-.354,1.1-.608,1.754s-.546,1.329-.817,1.95a8.972,8.972,0,0,1,.838-.846,1.441,1.441,0,0,1,.691-.383.464.464,0,0,1,.438.158.928.928,0,0,1,.133.513,3.667,3.667,0,0,1-.042.533c-.029.2-.075.412-.112.629s-.083.454-.117.663a3.276,3.276,0,0,0-.033.533c.146.142.575-.192,1.021-.625a15.649,15.649,0,0,0,1.121-1.229c.034-.067.071-.133.108-.2s.079-.133.121-.2a4.885,4.885,0,0,1,.421-.546,4.185,4.185,0,0,1,.48-.463,3.1,3.1,0,0,1,.529-.354,1.635,1.635,0,0,1,.513-.179.955.955,0,0,1,.579.067.871.871,0,0,1,.4.454c.4.933-.221,1.45-.933,1.737a5.7,5.7,0,0,1-1.538.333c-.246.025-.337.233-.341.467a1.043,1.043,0,0,0,.2.633,2.573,2.573,0,0,0,1.833.071,8.867,8.867,0,0,0,1.917-.7,12.644,12.644,0,0,1,.746-1.6c.258-.479.471-.83.475-.833a.373.373,0,0,1,.217-.167.326.326,0,0,1,.412.233.349.349,0,0,1-.042.263s-.2.337-.45.763-.542.946-.729,1.333c.117-.121.246-.254.379-.4l.417-.446c.483-.517,1-1.066,1.454-1.471s.858-.671,1.117-.6a.413.413,0,0,1,.325.329,1.682,1.682,0,0,1-.087.8,11.8,11.8,0,0,0-.379,1.579c-.059.421-.042.721.087.838s.379.05.812-.216a14.813,14.813,0,0,0,1.883-1.5c.2-.571.417-1.15.642-1.717s.466-1.133.708-1.662c-.246.008-.433,0-.767,0s-.817.021-1.654.1a2.626,2.626,0,0,1-.429-.009c-.167-.021-.308-.075-.271-.2a.519.519,0,0,1,.187-.234.925.925,0,0,1,.463-.191,17.209,17.209,0,0,1,1.787-.159c.4-.008.675,0,1.008-.008.221-.475.4-.858.529-1.121s.2-.412.2-.417a.414.414,0,0,1,.138-.154.392.392,0,0,1,.192-.054Zm-12.9,5.817.021-.029.025-.033a3.8,3.8,0,0,1,.35-.459,3.443,3.443,0,0,1,.4-.383,2.462,2.462,0,0,1,.363-.25,1.142,1.142,0,0,1,.329-.121.254.254,0,0,1,.159.017.223.223,0,0,1,.108.121c.179.421-.15.691-.579.867a5.062,5.062,0,0,1-1.171.271Zm-3.15-.512c.025,0,.025,0,.017,0l-.067.008.025-.008.025,0Zm-6.833-3.121a.317.317,0,0,1,.329.267.358.358,0,0,1-.059.262.389.389,0,0,1-.225.155,1.551,1.551,0,0,0-.754.612,4.428,4.428,0,0,0-.341.521.36.36,0,0,1-.209.175.34.34,0,0,1-.262-.017.3.3,0,0,1-.163-.2.344.344,0,0,1,.029-.263,4.739,4.739,0,0,1,.466-.683,2.2,2.2,0,0,1,1.121-.825l.033,0,.033,0Zm-15.808,3.508.025-.029.021-.033a3.815,3.815,0,0,1,.35-.458,3.4,3.4,0,0,1,.4-.383,2.2,2.2,0,0,1,.367-.25,1.026,1.026,0,0,1,.325-.125.245.245,0,0,1,.158.021.229.229,0,0,1,.112.121c.175.421-.154.692-.583.867a5.017,5.017,0,0,1-1.171.271Z" transform="translate(-591.887 -620)"></path></svg>